<?xml version="1.0" encoding="utf-8"?>
<!-- Generator: Adobe Illustrator 27.5.0, SVG Export Plug-In . SVG Version: 6.00 Build 0)  -->
<svg version="1.1" id="Layer_1" xmlns="http://www.w3.org/2000/svg" xmlns:xlink="http://www.w3.org/1999/xlink" x="0px"
	y="0px" viewBox="0 0 14 14" style="enable-background:new 0 0 14 14;" xml:space="preserve">
	<style type="text/css">
		.st0 {
			fill: #F96704;
		}
	</style>
	<path class="st0" d="M12.6,13.7l-2.8-3c-1.2,0.9-2.7,1.3-4.2,1.2C4.1,11.7,2.7,11,1.8,9.8c-1-1.2-1.5-2.6-1.4-4.2
	c0.1-1.5,0.8-2.9,1.9-4c1.1-1,2.6-1.6,4.1-1.6c1.5,0,2.9,0.6,4,1.7c1.1,1.1,1.7,2.5,1.8,4c0.1,1.5-0.5,3-1.5,4.1l2.7,3
	c0.1,0.1,0.1,0.1,0.1,0.2c0,0.1,0,0.2,0,0.2c0,0.1,0,0.2,0,0.2c0,0.1-0.1,0.1-0.1,0.2c-0.1,0.1-0.1,0.1-0.2,0.1c-0.1,0-0.2,0-0.2,0
	c-0.1,0-0.2,0-0.2-0.1C12.7,13.8,12.6,13.7,12.6,13.7L12.6,13.7z M3.1,2.6C2.3,3.3,1.8,4.3,1.6,5.4s0.1,2.2,0.7,3.1
	c0.6,0.9,1.5,1.6,2.5,2S7,10.8,8,10.4c1-0.4,1.9-1.1,2.4-2.1c0.5-1,0.7-2.1,0.5-3.1c-0.2-1.1-0.8-2-1.6-2.7c-0.8-0.7-1.9-1.1-3-1.1
	C5.1,1.3,3.9,1.8,3.1,2.6z" />
</svg>